General
Complete name                  : C:\Users\joeyz\Code\Playground\stereoscopic\Dataset\videos\minecraft.mp4
Format                         : MPEG-4
Format profile                 : Base Media / Version 2
Codec ID                       : mp42 (mp41/mp42/isom)
File size                      : 97.3 MiB
Duration                       : 1 min 0 s
Overall bit rate               : 13.6 Mb/s
Frame rate                     : 30.000 FPS
Encoded date                   : 2017-04-11 01:37:09 UTC
Tagged date                    : 2017-04-11 01:37:11 UTC

Video
ID                             : 1
Format                         : AVC
Format/Info                    : Advanced Video Codec
Format profile                 : High@L5
Format settings                : CABAC / 2 Ref Frames
Format settings, CABAC         : Yes
Format settings, Reference fra : 2 frames
Codec ID                       : avc1
Codec ID/Info                  : Advanced Video Coding
Duration                       : 1 min 0 s
Source duration                : 1 min 2 s
Source_Duration_LastFrame      : 10 ms
Bit rate                       : 13.0 Mb/s
Width                          : 2 160 pixels
Height                         : 2 160 pixels
Display aspect ratio           : 1.000
Frame rate mode                : Constant
Frame rate                     : 30.000 FPS
Color space                    : YUV
Chroma subsampling             : 4:2:0
Bit depth                      : 8 bits
Scan type                      : Progressive
Bits/(Pixel*Frame)             : 0.093
Stream size                    : 93.2 MiB (96%)
Source stream size             : 96.4 MiB (99%)
Title                          : Core Media Video
Encoded date                   : 2017-04-11 01:37:09 UTC
Tagged date                    : 2017-04-11 01:37:11 UTC
Color range                    : Limited
Color primaries                : BT.709
Transfer characteristics       : BT.709
Matrix coefficients            : BT.709
Codec configuration box        : avcC

Audio
ID                             : 2
Format                         : AAC LC
Format/Info                    : Advanced Audio Codec Low Complexity
Codec ID                       : mp4a-40-2
Duration                       : 1 min 0 s
Source duration                : 1 min 0 s
Bit rate mode                  : Constant
Bit rate                       : 126 kb/s
Channel(s)                     : 2 channels
Channel layout                 : L R
Sampling rate                  : 44.1 kHz
Frame rate                     : 43.066 FPS (1024 SPF)
Compression mode               : Lossy
Stream size                    : 920 KiB (1%)
Source stream size             : 921 KiB (1%)
Title                          : Core Media Audio
Default                        : Yes
Alternate group                : 1
Encoded date                   : 2017-04-11 01:37:09 UTC
Tagged date                    : 2017-04-11 01:37:11 UTC

